<?xml version="1.0" standalone="no"?><!DOCTYPE svg PUBLIC "-//W3C//DTD SVG 1.1//EN" "http://www.w3.org/Graphics/SVG/1.1/DTD/svg11.dtd"><svg t="1739453645754" class="icon" viewBox="0 0 1024 1024" version="1.1" xmlns="http://www.w3.org/2000/svg" p-id="1410" xmlns:xlink="http://www.w3.org/1999/xlink" width="200" height="200"><path d="M0 0m384 0l256 0q384 0 384 384l0 256q0 384-384 384l-256 0q-384 0-384-384l0-256q0-384 384-384Z" fill="#9A6EFC" p-id="1411"></path><path d="M744.064 476.117333v211.541334c0 47.872-100.864 86.656-225.322667 86.656-122.325333 0-221.866667-37.504-225.237333-84.224V476.117333l211.285333 93.653334a34.645333 34.645333 0 0 0 25.045334 1.194666l3.029333-1.194666z" fill="#FFFFFF" p-id="1412"></path><path d="M532.821333 216.32l323.797334 143.573333a17.322667 17.322667 0 0 1 0 31.701334l-43.221334 19.157333v160.298667a34.645333 34.645333 0 1 1-34.645333 0v-145.066667l-245.930667 109.056a34.730667 34.730667 0 0 1-28.074666 0l-323.84-143.530667a17.322667 17.322667 0 0 1 0-31.701333l323.797333-143.573333a34.688 34.688 0 0 1 28.117333 0.085333z" fill="#D6C5FD" p-id="1413"></path></svg>